<svg id="" data-name="" xmlns="http://www.w3.org/2000/svg" viewBox="0 0 152 149.75">
    <title>Bright Wrench</title>
    <g id="background" data-name="back">
        <path d="M151.46,101.72a4,4,0,0,1,3.15-3.58c6-1.33,18.08-4.53,17.36-8.61L170,78.59c-.72-4.17-13.15-3-19.36-2.14a4,4,0,0,1-4.17-2.29,55.33,55.33,0,0,0-5.23-9,4,4,0,0,1,.11-4.78c3.82-5,11-15.16,7.83-17.83l-8.51-7.14c-3.18-2.68-12,6.15-16.19,10.79a4,4,0,0,1-4.68.93A55.58,55.58,0,0,0,110,43.51a4,4,0,0,1-3-3.72c-.26-6.27-1.39-18.67-5.47-18.67H90.44c-4.17,0-5.2,12.4-5.47,18.67a4,4,0,0,1-3,3.72,55.58,55.58,0,0,0-9.83,3.58,4,4,0,0,1-4.68-.93c-4.16-4.64-13-13.47-16.19-10.79l-8.51,7.14c-3.18,2.67,4,12.87,7.83,17.83a4,4,0,0,1,.11,4.78,54.21,54.21,0,0,0-5.23,9,4,4,0,0,1-4.17,2.29c-6.21-.83-18.64-2-19.36,2.14L20,89.53c-.72,4.08,11.36,7.28,17.47,8.62a4,4,0,0,1,3.15,3.59A54.51,54.51,0,0,0,42.46,112a4,4,0,0,1-1.74,4.44c-5.3,3.36-15.55,10.49-13.47,14.14l5.56,9.62c2.08,3.6,13.37-1.72,18.93-4.62a4,4,0,0,1,4.72.72,55.91,55.91,0,0,0,8,6.73A4,4,0,0,1,66,147.58c-1.9,6-5.16,18-1.26,19.44l10.44,3.74c3.9,1.38,9.14-9.91,11.53-15.7a4,4,0,0,1,4.16-2.48c1.71.16,3.45.25,5.2.25s3.48-.09,5.19-.25a4,4,0,0,1,4.17,2.48c2.39,5.79,7.62,17.11,11.52,15.7L127.38,167c3.9-1.39.64-13.46-1.27-19.44a4,4,0,0,1,1.53-4.51,56.64,56.64,0,0,0,8-6.74,4,4,0,0,1,4.72-.72c5.56,2.9,16.85,8.22,18.93,4.62l5.55-9.62c2.07-3.6-8.16-10.72-13.45-14.08a4,4,0,0,1-1.74-4.45A54.37,54.37,0,0,0,151.46,101.72ZM96,139.42a42.14,42.14,0,1,1,42.15-42.14A42.14,42.14,0,0,1,96,139.42Z" transform="translate(-20 -21.12)"/>
    </g>
    <g id="accent" data-name="front" >
        <path d="M96,126.55a29.2,29.2,0,0,0,27.49-39.24L106,104.8l-17.42.1-.1-17.63L106,69.79A29.2,29.2,0,0,0,68.5,107.25L58.75,117a42.27,42.27,0,0,0,17.52,17.52L86,124.77A29.21,29.21,0,0,0,96,126.55Z" transform="translate(-20 -21.12)"/>
    </g>
</svg>