<svg id="ebc09317-f786-4904-b590-d3e0d88f7153" data-name="main" xmlns="http://www.w3.org/2000/svg" viewBox="0 0 109.46 107.84">
    <title>menu gear</title>
    <g id="background">
        <path d="M150.71,90.42l-1.39-7.88c-.52-3-9.47-2.14-13.94-1.54a2.87,2.87,0,0,1-3-1.65,40.1,40.1,0,0,0-3.77-6.51,2.88,2.88,0,0,1,.08-3.44c2.75-3.57,7.93-10.92,5.64-12.84l-6.13-5.14c-2.29-1.93-8.61,4.43-11.66,7.77a2.89,2.89,0,0,1-3.37.67,39.86,39.86,0,0,0-7.08-2.58,2.87,2.87,0,0,1-2.14-2.68c-.19-4.51-1-13.44-3.94-13.44H92c-3,0-3.74,8.93-3.94,13.44a2.87,2.87,0,0,1-2.14,2.68,39.86,39.86,0,0,0-7.08,2.58,2.89,2.89,0,0,1-3.37-.67c-3-3.34-9.37-9.7-11.66-7.77l-6.13,5.14c-2.29,1.92,2.89,9.27,5.64,12.84a2.88,2.88,0,0,1,.08,3.44,39.27,39.27,0,0,0-3.77,6.51,2.87,2.87,0,0,1-3,1.65c-4.47-.6-13.42-1.41-13.94,1.54l-1.39,7.88c-.52,2.94,8.18,5.24,12.58,6.21a2.88,2.88,0,0,1,2.27,2.58,39.33,39.33,0,0,0,1.3,7.41,2.9,2.9,0,0,1-1.25,3.2C52.38,112.24,45,117.37,46.5,120l4,6.93c1.5,2.59,9.63-1.24,13.63-3.33a2.9,2.9,0,0,1,3.4.52,40.52,40.52,0,0,0,5.76,4.85,2.89,2.89,0,0,1,1.1,3.25c-1.37,4.3-3.72,13-.91,14L81,148.91c2.81,1,6.58-7.13,8.3-11.3a2.89,2.89,0,0,1,3-1.79c1.23.12,2.48.18,3.74.18s2.51-.06,3.74-.18a2.89,2.89,0,0,1,3,1.79c1.72,4.17,5.49,12.32,8.3,11.3l7.52-2.74c2.81-1,.46-9.69-.91-14a2.89,2.89,0,0,1,1.1-3.25,40.52,40.52,0,0,0,5.76-4.85,2.9,2.9,0,0,1,3.4-.52c4,2.09,12.13,5.92,13.63,3.33l4-6.93c1.49-2.59-5.88-7.72-9.69-10.14a2.9,2.9,0,0,1-1.25-3.2,39.33,39.33,0,0,0,1.3-7.41,2.88,2.88,0,0,1,2.27-2.58C142.53,95.66,151.23,93.36,150.71,90.42ZM96,108.29A12.29,12.29,0,1,1,108.29,96,12.29,12.29,0,0,1,96,108.29Z"
              transform="translate(-41.27 -41.16)"/>
    </g>
    <g id="accent">
        <path d="M96,75.43A20.57,20.57,0,1,0,116.57,96,20.57,20.57,0,0,0,96,75.43Zm0,32.86A12.29,12.29,0,1,1,108.29,96,12.29,12.29,0,0,1,96,108.29Z"
              transform="translate(-41.27 -41.16)"/>
    </g>
</svg>